<mxfile host="app.diagrams.net" modified="2024-07-10T06:14:00.585Z" agent="Mozilla/5.0 (Windows NT 10.0; Win64; x64) AppleWebKit/537.36 (KHTML, like Gecko) Chrome/126.0.0.0 Safari/537.36" version="24.6.4" etag="AXutnojCh0CM1GkJhvHv" type="device">
  <diagram id="3cJpUtscF49tkWia3Xlj" name="Page-1">
    <mxGraphModel dx="880" dy="2634" grid="1" gridSize="10" guides="1" tooltips="1" connect="1" arrows="1" fold="1" page="1" pageScale="1" pageWidth="850" pageHeight="1100" math="0" shadow="0">
      <root>
        <mxCell id="0" />
        <mxCell id="1" parent="0" />
        <mxCell id="jyfWPDeoQhIzPaVICY_f-1" value="" style="ellipse;whiteSpace=wrap;html=1;fillColor=#f28882;strokeColor=#b85450;" vertex="1" parent="1">
          <mxGeometry x="360" y="-2180" width="180" height="160" as="geometry" />
        </mxCell>
        <mxCell id="jyfWPDeoQhIzPaVICY_f-2" value="Actor" style="shape=umlActor;verticalLabelPosition=bottom;verticalAlign=top;html=1;outlineConnect=0;" vertex="1" parent="1">
          <mxGeometry x="410" y="-2030" width="30" height="60" as="geometry" />
        </mxCell>
      </root>
    </mxGraphModel>
  </diagram>
</mxfile>
